<?xml version="1.0" encoding="utf-8"?>
<?xml-stylesheet type="text/xsl" href="rss1.xsl"?>
<rss version="2.0" xmlns:atom="http://www.w3.org/2005/Atom" xmlns:content="http://purl.org/rss/1.0/modules/content/" xmlns:dc="http://purl.org/dc/elements/1.1/" xmlns:media="http://search.yahoo.com/mrss/">
<channel>
 <title>sharemania</title>
 <link>http://www.sharemania.us/</link>
 <atom:link href="http://www.gettyimg.com/" rel="self" type="application/rss+xml" />

 
                <item>
                <title><![CDATA[【Singles (lossy)】Dolby Atmos - Lady Gaga - The Dead Dance]]></title>
                <link><![CDATA[https://sharemania.us/threads/lady-gaga-the-dead-dance.283210/]]></link>
                <description><![CDATA[<article>
				<blockquote class="messageText SelectQuoteContainer ugc baseHtml">
					
					<img src="https://a5.mzstatic.com/us/r1000/0/Music211/v4/05/6c/b2/056cb283-3f22-a807-44d5-72c144ecf7d6/25UM1IM35276.rgb.jpg" class="bbCodeImage LbImage" alt="[​IMG]" data-url="https://a5.mzstatic.com/us/r1000/0/Music211/v4/05/6c/b2/056cb283-3f22-a807-44d5-72c144ecf7d6/25UM1IM35276.rgb.jpg" style=""><br>
<br>
<b>Artist: Lady Gaga<br>
Album: The Dead Dance - Single<br>
Format: ◗◖Dolby Atmos◗◖<br>
.m4a [EAC3-JOC, 16bit/48kHz, 768Kbps, 5.1s]<br>
</b><br>
<br>
Tracklist:<br>
1    The Dead Dance<br>
Released 3 September 2025<br>
℗ 2025 Interscope Records<br>
<br>



<div class="ToggleTriggerAnchor bbCodeSpoilerContainer">
	<button type="button" class="button bbCodeSpoilerButton ToggleTrigger Tooltip JsOnly" data-target="&gt; .SpoilerTarget"><span>Spoiler: <span class="SpoilerTitle">MediaInfo-Dolby Atmos</span></span></button>
	<div class="SpoilerTarget bbCodeSpoilerText">

<div class="bbCodeBlock bbCodeCode">
	<div class="type">Code:</div>
	<pre>General
Complete name             : 01 The Dead Dance.m4a
Format                    : MPEG-4
Format profile            : Base Media
File size                 : 23.2 MiB
Duration                  : 3 min 48 s
Overall bit rate mode     : Constant
Overall bit rate          : 853 kb/s
Title                     : The Dead Dance
Album                     : The Dead Dance - Single
Performer                 : Lady Gaga
Composer                  : Lady Gaga, Andrew Watt &amp; Henry Walter
Genre                     : Pop
ContentType               : Music
Encoded date              : 2025-09-03 19:27:32 UTC
Copyright                 : ℗ 2025 Interscope Records
Cover                     : Yes
Cover type                : Cover
Lyrics                    : [00:08.38]Like the words of a song, I hear you call / [00:16.14]Like a thief in my head, you criminal / [00:24.01]You stole my thoughts before I dreamed them / [00:31.82]And you killed my queen with just one pawn / [00:38.18]This goodbye is no surprise / [00:45.95]This goodbye won't make me cry / [00:52.54]Yeah, I'll keep on / [00:53.68]Dancin' until I'm dead / [00:55.62]Dancin' until I'm dead / [00:57.39]I'm dancin' until I'm dead / [01:00.34]Yeah, I'll keep on / [01:01.50]Dancin' until I'm dead (Dead) / [01:05.33]I'll dance until I'm dead / [01:08.60]Cuz when you killed me inside / [01:10.82]That's when I came alive / [01:12.81]Yeah, the music's gonna bring me back from death / [01:16.94]I'm dancin' until I'm dead (Dead) / [01:20.97]I'll dance until I'm dead / [01:26.41]You've created a creature of the night / [01:34.25]Now I'm haunting your air, your soul, your eyes / [01:40.59]This goodbye is no surprise (Is no surprise) / [01:48.40]This goodbye won't make me cry / [01:54.95]Yeah, I'll keep on / [01:56.11]Dancin' until I'm dead / [01:58.02]Dancin' until I'm dead / [01:59.84]I'm dancin' until I'm dead / [02:02.78]Yeah, I'll keep on / [02:03.92]Dancin' until I'm dead (Dead) / [02:07.80]I'll dance until I'm dead / [02:11.04]Cuz when you killed me inside / [02:13.28]That's when I came alive / [02:15.30]Yeah, the music's gonna bring me back from death / [02:19.35]I'm dancin' until I'm dead (Dead) / [02:23.40]I'll dance until I'm dead / [02:28.89]Do the dead dance! / [02:30.34]DEAD! / [02:32.04]The Dead Dance! / [02:36.69]Do The Dead Dance! / [02:38.19]DEAD! / [02:39.85]The Dead Dance! / [02:44.47]Do The Dead Dance! / [02:45.95]DEAD! / [02:47.67]The Dead Dance! / [02:52.31]Do The Dead Dance! / [02:53.78]DEAD! / [02:55.94]But I'm alive on the dance floor / [02:58.28]And I'm dancin' until I'm dead (Dead, I'm dancin' until I'm dead, I'm dancin' until I'm dead) / [03:05.23]Yeah, I'll keep on / [03:06.37]Dancin' until I'm dead (Dead) / [03:10.24]I'll dance until I'm dead / [03:13.48]Cuz when you killed me inside, that's when I came alive / [03:17.72]And the music's gonna bring me back from death / [03:21.90]I'm dancin' until I'm dead (Dead) / [03:25.94]Dance until I'm dead / [03:28.39]Dead
Rating                    : Clean
Album_Sort                : The Dead Dance - Single
Album_Performer           : Lady Gaga
Part_Position             : 1
Part_Position_Total       : 1
Track_Position            : 1
Track_Position_Total      : 1
Performer_Sort            : Lady Gaga
Composer_Sort             : Lady Gaga, Andrew Watt &amp; Henry Walter
GenreID                   : 14
AppleStoreCountry         : Indonesia
AlbumTitleID              : 277293880
cmID                      : 296059745
PlayListID                : 1837298856
AppleStoreCatalogID       : 1837298858
Title_Sort                : The Dead Dance
Vendor                    : Universal:isrc:USUM72407034

Audio
ID                        : 1
Format                    : E-AC-3 JOC
Format/Info               : Enhanced AC-3 with Joint Object Coding
Commercial name           : Dolby Digital Plus with Dolby Atmos
Format settings           : Big
Codec ID                  : ec-3
Duration                  : 3 min 48 s
Bit rate mode             : Constant
Bit rate                  : 768 kb/s
Maximum bit rate          : 811 kb/s
Channel(s)                : 6 channels
Channel layout            : L R C LFE Ls Rs
Sampling rate             : 48.0 kHz
Frame rate                : 31.250 FPS (1536 SPF)
Compression mode          : Lossy
Stream size               : 20.9 MiB (90%)
Title                     : mp4@GPAC2.5-DEV-rev1694-g4860a1a6-master
Default                   : Yes
Alternate group           : 1
Encoded date              : 2025-09-03 19:27:32 UTC
Complexity index          : 16
Number of dynamic objects : 15
Bed channel count         : 1 channel
Bed channel configuration : LFE
dmixmod                   : Lo/Ro
ltrtcmixlev               : -3.0
ltrtsurmixlev             : -3.0
lorocmixlev               : -3.0
lorosurmixlev             : -3.0

Image
Type                      : Cover
Format                    : JPEG
Muxing mode               : moov-meta-covr
Width                     : 3 000 pixels
Height                    : 3 000 pixels
Color space               : YUV
Chroma subsampling        : 4:2:0
Bit depth                 : 8 bits
Compression mode          : Lossy
Stream size               : 2.29 MiB (10%)

</pre>
</div></div>
</div><br>
<br>
<br>
<br>
PASSWORD ZIP: sharemania<br>
link<br>




<div class="bbCodeBlock bbCodeVfcHH HiddenContent">
	<div class="attribution type">Hidden Content:</div>
	<blockquote>You must either reply or click 'Like' to see the hidden information contained here.</blockquote>
</div>
					<div class="messageTextEndMarker">&nbsp;</div>
				</blockquote>
			</article>]]></description>
                <author><![CDATA[andammm777]]></author>
                </item>

                </channel></rss>